<?xml version="1.0"?>
<svg xmlns="http://www.w3.org/2000/svg" xmlns:xlink="http://www.w3.org/1999/xlink" version="1.1" id="Capa_1" x="0px" y="0px" viewBox="0 0 512 512" style="enable-background:new 0 0 512 512;" xml:space="preserve" width="512px" height="512px"><g><g>
	<g>
		<path d="M232.618,183.949c-19.509-8.814-41.297-13.283-64.758-13.283c-21.305,0-42.891,4.385-64.241,13.064    C41.639,209.286,0,271.719,0,339.088c0,92.867,75.554,168.421,168.421,168.421s168.421-75.554,168.421-168.421    C336.842,271.062,295.742,210.083,232.618,183.949z M168.421,473.825c-74.296,0-134.737-60.446-134.737-134.737    c0-53.883,33.263-103.798,82.695-124.188c17.224-7.001,34.549-10.549,51.481-10.549c18.644,0,35.767,3.469,51.38,10.509    c50.981,21.114,83.919,69.872,83.919,124.227C303.158,413.378,242.717,473.825,168.421,473.825z" data-original="#000000" class="active-path" data-old_color="#000000" fill="#EF2853"/>
	</g>
</g><g>
	<g>
		<path d="M209.404,120.14h-81.965c-18.886,0-33.684,14.799-33.684,33.684v46.035c0,5.721,2.902,11.048,7.708,14.147    c4.811,3.099,10.858,3.554,16.067,1.196c15.124-6.827,32.247-10.291,50.891-10.291c16.932,0,34.257,3.554,51.486,10.549    c2.044,0.831,4.194,1.241,6.338,1.241c3.301,0,6.585-0.971,9.404-2.869c4.648-3.133,7.439-8.365,7.439-13.973v-46.035    C243.088,134.939,228.289,120.14,209.404,120.14z M209.404,176.556c-13.676-3.542-27.391-5.328-40.982-5.328    c-14.333,0-28.036,1.667-40.982,4.974v-22.378l81.942-0.258c0,0,0.022,0.079,0.022,0.258V176.556z" data-original="#000000" class="active-path" data-old_color="#000000" fill="#EF2853"/>
	</g>
</g><g>
	<g>
		<path d="M400.281,169.544h-31.439c-27.391,0-48.842-21.457-48.842-48.842v-32c0-46.434-37.777-84.211-84.211-84.211    c-46.434,0-84.211,37.777-84.211,84.211v47.719c0,9.302,7.54,16.842,16.842,16.842c9.302,0,16.842-7.54,16.842-16.842V88.702    c0-27.857,22.669-50.526,50.526-50.526c27.862,0,50.526,22.669,50.526,50.526v32c0,45.507,37.025,82.526,82.526,82.526h31.439    c9.302,0,16.842-7.54,16.842-16.842C417.123,177.083,409.583,169.544,400.281,169.544z" data-original="#000000" class="active-path" data-old_color="#000000" fill="#EF2853"/>
	</g>
</g><g>
	<g>
		<path d="M495.158,168.982h-31.439c-9.302,0-16.842,7.54-16.842,16.842c0,9.302,7.54,16.842,16.842,16.842h31.439    c9.302,0,16.842-7.54,16.842-16.842C512,176.522,504.46,168.982,495.158,168.982z" data-original="#000000" class="active-path" data-old_color="#000000" fill="#EF2853"/>
	</g>
</g><g>
	<g>
		<path d="M493.176,99.279c-4.39-8.197-14.585-11.295-22.804-6.894l-31.444,16.842c-8.196,4.39-11.284,14.602-6.894,22.799    c3.037,5.67,8.848,8.893,14.86,8.893c2.678,0,5.401-0.646,7.944-1.999l31.444-16.842    C494.479,117.687,497.566,107.475,493.176,99.279z" data-original="#000000" class="active-path" data-old_color="#000000" fill="#EF2853"/>
	</g>
</g><g>
	<g>
		<path d="M486.271,249.578l-31.444-16.842c-8.213-4.401-18.42-1.302-22.804,6.894c-4.39,8.196-1.302,18.408,6.894,22.799    l31.444,16.842c2.532,1.353,5.255,1.999,7.938,1.999c6.013,0,11.829-3.228,14.866-8.887    C497.555,264.18,494.467,253.968,486.271,249.578z" data-original="#000000" class="active-path" data-old_color="#000000" fill="#EF2853"/>
	</g>
</g></g> </svg>
