<?xml version="1.0"?>
<svg xmlns="http://www.w3.org/2000/svg" height="512px" viewBox="0 -27 492.1889 492" width="512px"><g><path d="m463.175781 88.050781c-3.125 3.121094-3.125 8.1875 0 11.3125 17.34375 17.34375 17.34375 45.464844 0 62.808594-17.347656 17.34375-45.46875 17.34375-62.8125 0-.179687-.175781-.363281-.34375-.554687-.5-14.457032-20.28125-32.863282-37.4375-54.113282-50.429687 8.3125-18.96875 10.933594-39.160157 7.339844-57.671876-6.492187-32.183593-29.890625-52.980468-59.605468-52.980468-14.589844 0-30.222657 5.277344-45.5 15.320312-15.472657-10.5-30.886719-15.816406-45.890626-15.816406-29.898437 0-53.203124 21.027344-59.371093 53.550781-.546875 2.871094-.945313 5.765625-1.195313 8.675781-11.8125-3.570312-21.089844-5.21875-28.152344-5-9.582031.058594-16.6875 5.976563-17.773437 14.785157-.632813 4.09375-.203125 10.34375 2.078125 30.878906l2.265625 20.851563c-19.792969 15.917968-35.367187 34.597656-46.355469 55.597656l-30.300781 6.082031c-13.53125 2.75-23.25 14.65625-23.234375 28.464844v64.882812c-.015625 13.804688 9.703125 25.710938 23.230469 28.460938l30.292969 6.070312c5.992187 11.859375 13.402343 22.941407 22.078124 33.007813-11.1875 26.433594-3.601562 57.078125 18.628907 75.238281 13.074219 10.585937 29.398437 16.332031 46.222656 16.273437 19.152344.003907 37.589844-7.273437 51.578125-20.351562l7.808594-7.402344c26.496094 4.089844 53.519531 3.257813 79.714844-2.457031l10.792968 10.527344c13.398438 12.738281 31.199219 19.808593 49.6875 19.726562h2.097656c.082032 0 .160157-.167969.238282-.167969 19.238281-.511718 37.496094-8.617187 50.777344-22.550781 20.839843-21.96875 22.835937-55.421875 5.738281-81.148437 19.214843-26.285156 29.113281-56.617188 29.113281-87.933594v-7.359375c0-.167969.226562-.335937.21875-.5-1-15.972656-5.371094-32.601563-13.207031-49.480469 5.429687 1.542969 11.050781 2.328125 16.699219 2.332032 24.445312.039062 46.503906-14.664063 55.871093-37.242188 9.367188-22.582031 4.191407-48.582031-13.101562-65.859375-3.121094-3.121094-8.1875-3.121094-11.304688.003906zm-304.800781-31.410156c4.742188-25.011719 21.472656-40.546875 43.65625-40.546875 12.820312 0 27.007812 5.53125 41.039062 16 2.804688 2.09375 6.648438 2.117188 9.480469.0625 14.027344-10.183594 28.164063-15.566406 40.875-15.566406 22.097657 0 38.925781 15.382812 43.910157 40.089844 3.359374 17.308593.042968 36.476562-9.339844 54.296874-10.574219 20.089844-28.660156 37.980469-52.335938 51.980469h-55.960937c-23.4375-14-41.371094-31.523437-51.914063-51.558593-9.429687-17.90625-12.769531-37.234376-9.40625-54.757813zm253.625 189.515625c0 29.171875-9.691406 57.417969-28.464844 81.691406-1.367187 1.652344-3.46875 5.457032-.832031 10.730469.25.457031.539063.886719.867187 1.292969 15.257813 19.882812 14.410157 47.085937-2.035156 64.414062-10.34375 10.816406-24.355468 16.671875-39.519531 17.671875h-1.980469c-14.363281.074219-28.199218-5.402343-38.617187-15.285156l-13.109375-12.664063c-1.90625-1.871093-4.484375-2.890624-7.152344-2.832031-.617188-.003906-1.230469.058594-1.832031.195313-26.1875 6.160156-53.339844 7.019531-79.863281 2.523437-.449219-.082031-.90625-.121093-1.363282-.125-2.65625-.082031-5.230468.917969-7.136718 2.769531l-9.894532 9.371094c-10.402344 9.667969-23.921875 15.292969-38.109375 15.855469-13.960937.683594-27.691406-3.761719-38.601562-12.5-17.507813-14.320313-22.855469-38.808594-12.910157-59.125 1.355469-2.144531 1.703126-4.773437.953126-7.195313-.277344-1.4375-.949219-2.773437-1.933594-3.859374-9.65625-10.578126-17.71875-22.503907-23.941406-35.40625-.390626-.8125-.914063-1.554688-1.554688-2.191407-1.585938-1.765625-3.726562-2.933593-6.066406-3.320312l-32.53125-6.53125c-6.0625-1.242188-10.402344-6.589844-10.371094-12.773438v-64.882812c-.03125-6.183594 4.308594-11.53125 10.367188-12.773438l32.585937-6.527343c2.335937-.386719 4.464844-1.554688 6.039063-3.320313.605468-.609375 1.105468-1.308594 1.488281-2.078125 10.480469-20.960938 25.984375-39.492188 46.097656-55.082031.269531-.207031.519531-.429688.757813-.667969 1.910156-1.910156 2.949218-4.527344 2.863281-7.230469 0-.289062-.015625-.578125-.046875-.867187l-2.628906-24.199219c-1.28125-11.523437-2.609376-24.039063-2.164063-26.714844.023437-.144531.042969-.289062.058594-.433593.007812-.125.039062-.246094.085937-.363282.59375-.332031 1.277344-.472656 1.953125-.398437h.273438c4.300781-.148438 12.550781.808593 27.800781 5.804687 1.390625 13.90625 5.496094 27.402344 12.089844 39.726563 8.632812 16.394531 21.5 31.101562 37.789062 44.101562h-32.214844c-4.417968 0-8 3.582031-8 8s3.582032 8 8 8h174.53125c4.417969 0 8-3.582031 8-8s-3.582031-8-8-8h-29.816406c13.621094-10.390625 25.25-23.15625 34.320313-37.683593 22.589843 14.152343 41.242187 32.835937 54.226562 54.269531l6.953125 13.898437c7.457032 15.476563 12.589844 31.269532 12.589844 45.613282zm0 0" data-original="#000000" class="active-path" data-old_color="#000000" fill="#EF2853"/><path d="m116.816406 200.804688c-13.128906 0-23.773437 10.640624-23.773437 23.769531 0 13.128906 10.644531 23.769531 23.773437 23.769531s23.769532-10.640625 23.769532-23.769531c-.015626-13.121094-10.648438-23.753907-23.769532-23.769531zm0 31.539062c-4.292968 0-7.773437-3.476562-7.773437-7.769531s3.480469-7.769531 7.773437-7.769531c4.289063 0 7.769532 3.476562 7.769532 7.769531-.003907 4.289062-3.480469 7.765625-7.769532 7.769531zm0 0" data-original="#000000" class="active-path" data-old_color="#000000" fill="#EF2853"/></g> </svg>
