<?xml version="1.0"?>
<svg xmlns="http://www.w3.org/2000/svg" xmlns:xlink="http://www.w3.org/1999/xlink" version="1.1" id="Layer_1" x="0px" y="0px" viewBox="0 0 512.001 512.001" style="enable-background:new 0 0 512.001 512.001;" xml:space="preserve" width="512px" height="512px"><g><g>
	<g>
		<path d="M240.392,242.669c-2.63-3.2-7.357-3.662-10.556-1.032c-5.306,4.361-12.94,6.863-20.945,6.863    c-8.004,0-15.638-2.501-20.945-6.863c-3.201-2.63-7.927-2.167-10.556,1.032c-2.63,3.2-2.168,7.926,1.032,10.556    c8.062,6.626,18.882,10.275,30.469,10.275s22.408-3.649,30.469-10.275C242.561,250.595,243.023,245.869,240.392,242.669z" data-original="#000000" class="active-path" data-old_color="#000000" fill="#EF2853"/>
	</g>
</g><g>
	<g>
		<path d="M166.047,188.517c-4.142,0-7.5,3.358-7.5,7.5v8.569c0,4.142,3.358,7.5,7.5,7.5c4.142,0,7.5-3.358,7.5-7.5v-8.569    C173.547,191.875,170.189,188.517,166.047,188.517z" data-original="#000000" class="active-path" data-old_color="#000000" fill="#EF2853"/>
	</g>
</g><g>
	<g>
		<path d="M251.736,188.517c-4.142,0-7.5,3.358-7.5,7.5v8.569c0,4.143,3.358,7.5,7.5,7.5c4.142,0,7.5-3.358,7.5-7.5v-8.569    C259.236,191.875,255.878,188.517,251.736,188.517z" data-original="#000000" class="active-path" data-old_color="#000000" fill="#EF2853"/>
	</g>
</g><g>
	<g>
		<path d="M267.61,49.82c0.128-1.25,0.196-2.505,0.196-3.757C267.805,20.663,241.377,0,208.891,0    c-32.485,0-58.914,20.663-58.914,46.061c0,1.253,0.064,2.51,0.193,3.759c-35.911,20.483-60.175,59.136-60.175,103.353v42.845    c0,11.044,7.305,20.415,17.336,23.534c1.756,28.255,15.106,54.385,37.235,72.456c4.419,3.609,9.1,6.798,13.98,9.575v15.651    c0,6.941-3.856,13.181-10.064,16.285l-74.407,37.203c-11.323,5.661-18.356,17.042-18.356,29.701v35.526    c0,6.152,3.479,11.501,8.569,14.2V504.5c0,4.142,3.358,7.5,7.5,7.5c4.142,0,7.5-3.358,7.5-7.5v-52.483h27.845V504.5    c0,4.142,3.358,7.5,7.5,7.5c4.142,0,7.5-3.358,7.5-7.5v-77.121c0-4.142-3.358-7.5-7.5-7.5c-4.142,0-7.5,3.358-7.5,7.5v9.638    H71.788c-0.589,0-1.069-0.479-1.069-1.069v-35.526c0-6.941,3.856-13.181,10.064-16.285l54.573-27.286    c11.193,20.015,33.141,40.793,34.119,41.714c1.448,1.363,3.295,2.039,5.139,2.039c1.996,0,3.987-0.792,5.463-2.36    c2.839-3.016,2.695-7.763-0.321-10.602c-0.22-0.206-20.823-19.702-30.972-37.505l6.406-3.203    c11.323-5.661,18.356-17.042,18.356-29.701v-8.684c11.297,4.168,23.308,6.334,35.533,6.334c7.015,0,14.103-0.708,21.155-2.146    c22.576-4.603,43.116-17.258,57.836-35.634c14.626-18.258,22.645-41.054,22.579-64.19c-0.125-44.382-33.814-52.238-72.823-61.334    c-18.989-4.428-40.512-9.446-61.96-19.172c-7.149-3.241-15.53-0.981-19.931,5.375c-14.568,21.038-30.008,33.599-41.302,33.599    c-3.419,0-6.676,0.701-9.638,1.965v-20.172c0-57.289,46.608-103.896,103.897-103.896s103.896,46.608,103.896,103.896v17.138    c0,4.142,3.357,7.5,7.5,7.5c4.142,0,7.5-3.358,7.5-7.5v-17.138C327.788,108.956,303.522,70.302,267.61,49.82z M114.633,186.379    c22.53,0,43.274-25.099,53.634-40.059c0.193-0.279,0.489-0.39,0.795-0.39c0.208,0,0.42,0.051,0.609,0.137    c22.796,10.337,45.084,15.534,64.749,20.12c41.29,9.628,61.142,15.638,61.229,46.768c0.056,19.724-6.793,39.175-19.286,54.77    c-12.533,15.645-29.979,26.411-49.126,30.315c-26.226,5.344-52.9-1.087-73.183-17.651c-20.286-16.567-31.921-41.073-31.921-67.234    c0-4.142-3.358-7.5-7.5-7.5c-5.314,0-9.638-4.324-9.638-9.638C104.995,190.703,109.319,186.379,114.633,186.379z M208.891,34.276    c-15.394,0-30.114,2.942-43.628,8.291C167.726,27.079,186.348,15,208.891,15c22.544,0,41.166,12.08,43.629,27.567    C239.006,37.218,224.286,34.276,208.891,34.276z" data-original="#000000" class="active-path" data-old_color="#000000" fill="#EF2853"/>
	</g>
</g><g>
	<g>
		<path d="M431.537,273.285c-32.993-32.993-86.677-32.993-119.671,0l-94.259,94.259c-32.993,32.994-32.993,86.678,0,119.672    c16.497,16.497,38.166,24.745,59.835,24.745c21.168,0,42.323-7.894,58.669-23.636l12.02,20.034    c2.13,3.551,6.738,4.703,10.29,2.572c3.552-2.131,4.704-6.738,2.572-10.29l-23.21-38.685c-2.888-4.812-8.167-7.801-13.779-7.801    h-12.286c-7.527,0-14.751-3.197-19.819-8.771c-5.136-5.649-7.562-12.987-6.83-20.66c1.29-13.525,13.643-24.121,28.122-24.121    h15.78c13.022,0,24.946,7.123,31.12,18.588l47.85,88.864c1.355,2.516,3.939,3.946,6.61,3.946c1.201,0,2.418-0.289,3.549-0.898    c3.647-1.964,5.012-6.512,3.048-10.159l-34.16-63.44l44.547-44.547C464.531,359.963,464.531,306.278,431.537,273.285z     M270.138,423.299c-1.122,11.76,2.765,23.488,10.663,32.175c7.904,8.694,19.174,13.681,30.918,13.681h12.286    c0.374,0,0.725,0.199,0.917,0.519l3.257,5.428l-1.506,1.507c-27.146,27.145-71.314,27.144-98.459,0    c-27.145-27.145-27.145-71.313,0-98.458l22.265-22.265c7.599,7.542,22.515,21.744,40.466,35.748    C279.529,398.292,271.42,409.867,270.138,423.299z M379.565,423.716L373.3,412.08c-8.793-16.332-25.779-26.477-44.327-26.477    h-15.78c-1.681,0-3.341,0.107-4.979,0.293c-20.618-15.138-38.65-32.243-47.12-40.627l61.378-61.378    c27.146-27.145,71.314-27.145,98.458,0c13.149,13.149,20.392,30.633,20.392,49.229s-7.242,36.08-20.392,49.229L379.565,423.716z" data-original="#000000" class="active-path" data-old_color="#000000" fill="#EF2853"/>
	</g>
</g><g>
	<g>
		<path d="M407.301,297.521c-19.629-19.63-51.569-19.63-71.198,0c-19.629,19.629-19.629,51.569,0,71.198    c9.814,9.815,22.707,14.722,35.599,14.722c12.892,0,25.785-4.907,35.599-14.722C426.93,349.09,426.93,317.151,407.301,297.521z     M396.695,358.113c-13.781,13.781-36.204,13.781-49.985,0s-13.781-36.204,0-49.985c6.891-6.891,15.941-10.335,24.993-10.335    s18.102,3.445,24.993,10.335C410.475,321.909,410.475,344.332,396.695,358.113z" data-original="#000000" class="active-path" data-old_color="#000000" fill="#EF2853"/>
	</g>
</g><g>
	<g>
		<circle cx="359.52" cy="321" r="7.5" data-original="#000000" class="active-path" data-old_color="#000000" fill="#EF2853"/>
	</g>
</g><g>
	<g>
		<circle cx="383.77" cy="345.17" r="7.5" data-original="#000000" class="active-path" data-old_color="#000000" fill="#EF2853"/>
	</g>
</g></g> </svg>
